<svg width="754" height="481" viewBox="0 0 754 481" fill="none" xmlns="http://www.w3.org/2000/svg">
<path d="M47.4303 100.821C38.0495 100.821 28.8793 97.8645 21.0795 92.3253C13.2796 86.7861 7.20032 78.9131 3.61044 69.7018C0.0205509 60.4904 -0.918727 50.3546 0.911381 40.5759C2.74149 30.7972 7.2588 21.8149 13.892 14.7649C20.5253 7.71488 28.9766 2.91375 38.1771 0.968646C47.3777 -0.976453 56.9143 0.0218422 65.5811 3.83729C74.2478 7.65274 81.6554 14.114 86.8671 22.4039C92.0788 30.6939 94.8606 40.4403 94.8606 50.4105C94.8464 63.7756 89.8447 76.5889 80.9529 86.0394C72.061 95.4899 60.0052 100.806 47.4303 100.821ZM47.4303 2.10046C38.4403 2.10046 29.6523 4.9338 22.1774 10.2422C14.7025 15.5505 8.87657 23.0955 5.43627 31.923C1.99596 40.7506 1.09582 50.4641 2.84968 59.8353C4.60353 69.2066 8.9326 77.8146 15.2895 84.5709C21.6463 91.3271 29.7455 95.9282 38.5627 97.7923C47.3799 99.6563 56.5192 98.6996 64.8248 95.0431C73.1304 91.3867 80.2294 85.1947 85.2239 77.2501C90.2185 69.3056 92.8843 59.9653 92.8843 50.4105C92.8707 37.6023 88.0774 25.3229 79.5561 16.2662C71.0347 7.20944 59.4813 2.11498 47.4303 2.10046Z" fill="#F2F2F2"/>
<path d="M369.561 71.4149C364.871 71.4149 360.285 69.9366 356.385 67.167C352.486 64.3974 349.446 60.4609 347.651 55.8553C345.856 51.2496 345.386 46.1817 346.301 41.2924C347.217 36.403 349.475 31.9119 352.792 28.3868C356.108 24.8618 360.334 22.4613 364.934 21.4887C369.535 20.5162 374.303 21.0153 378.636 22.923C382.97 24.8308 386.674 28.0614 389.279 32.2064C391.885 36.3514 393.276 41.2245 393.276 46.2096C393.269 52.8922 390.768 59.2988 386.322 64.0241C381.876 68.7493 375.848 71.4073 369.561 71.4149ZM369.561 23.1048C365.261 23.1048 361.058 24.4599 357.483 26.9987C353.908 29.5375 351.122 33.146 349.477 37.3678C347.831 41.5897 347.401 46.2353 348.24 50.7172C349.079 55.1991 351.149 59.3159 354.189 62.5472C357.229 65.7785 361.103 67.979 365.32 68.8705C369.537 69.762 373.908 69.3044 377.88 67.5557C381.852 65.8069 385.247 62.8455 387.636 59.046C390.025 55.2464 391.3 50.7793 391.3 46.2096C391.293 40.084 389.001 34.2112 384.925 29.8797C380.85 25.5482 375.324 23.1118 369.561 23.1048Z" fill="#F2F2F2"/>
<path d="M536.555 194.29C531.278 194.29 526.12 192.627 521.733 189.512C517.345 186.396 513.926 181.967 511.906 176.786C509.887 171.605 509.359 165.903 510.388 160.403C511.418 154.902 513.959 149.85 517.69 145.884C521.421 141.918 526.175 139.218 531.35 138.123C536.525 137.029 541.89 137.591 546.765 139.737C551.64 141.883 555.807 145.518 558.738 150.181C561.67 154.844 563.235 160.326 563.235 165.935C563.227 173.452 560.413 180.66 555.411 185.976C550.41 191.292 543.628 194.282 536.555 194.29ZM536.555 139.679C531.669 139.679 526.893 141.219 522.831 144.104C518.768 146.989 515.602 151.089 513.732 155.887C511.862 160.685 511.373 165.964 512.326 171.057C513.28 176.15 515.632 180.828 519.087 184.5C522.542 188.172 526.944 190.672 531.736 191.685C536.528 192.699 541.495 192.179 546.009 190.191C550.523 188.204 554.381 184.839 557.095 180.521C559.81 176.204 561.258 171.127 561.258 165.935C561.251 158.974 558.646 152.3 554.015 147.378C549.384 142.456 543.105 139.687 536.555 139.679Z" fill="#F2F2F2"/>
<path d="M753.012 481H530.682C530.42 481 530.169 480.889 529.984 480.692C529.798 480.495 529.694 480.228 529.694 479.95C529.694 479.671 529.798 479.404 529.984 479.207C530.169 479.01 530.42 478.9 530.682 478.9H753.012C753.274 478.9 753.525 479.01 753.711 479.207C753.896 479.404 754 479.671 754 479.95C754 480.228 753.896 480.495 753.711 480.692C753.525 480.889 753.274 481 753.012 481Z" fill="#CCCCCC"/>
<path d="M633.31 160.943C646.714 160.943 657.579 149.394 657.579 135.148C657.579 120.902 646.714 109.354 633.31 109.354C619.906 109.354 609.04 120.902 609.04 135.148C609.04 149.394 619.906 160.943 633.31 160.943Z" fill="#FFB8B8"/>
<path d="M635.828 441.452L624.357 445.592L603.87 400.539L620.8 394.427L635.828 441.452Z" fill="#FFB8B8"/>
<path d="M615.051 445.067L637.173 437.081L641.904 451.885L605.853 464.899C605.232 462.955 604.977 460.9 605.103 458.851C605.229 456.802 605.733 454.8 606.587 452.958C607.442 451.117 608.629 449.472 610.081 448.118C611.533 446.764 613.222 445.727 615.051 445.067Z" fill="#2F2E41"/>
<path d="M661.745 466.901L649.647 467.547L641.543 418.255L659.4 417.3L661.745 466.901Z" fill="#FFB8B8"/>
<path d="M640.831 464.334L664.164 463.088L664.903 478.703L626.877 480.734C626.78 478.683 627.064 476.632 627.713 474.698C628.362 472.765 629.363 470.985 630.658 469.463C631.954 467.94 633.519 466.703 635.264 465.823C637.01 464.943 638.901 464.437 640.831 464.334Z" fill="#2F2E41"/>
<path d="M589.745 303.125C590.83 302.098 591.69 300.831 592.264 299.413C592.839 297.995 593.113 296.46 593.069 294.917C593.025 293.374 592.663 291.859 592.009 290.481C591.355 289.102 590.424 287.893 589.283 286.938L600.818 251.468L583.04 256.297L574.812 289.24C573.43 291.384 572.835 293.993 573.142 296.572C573.449 299.151 574.635 301.52 576.476 303.232C578.316 304.943 580.684 305.878 583.13 305.858C585.575 305.838 587.929 304.866 589.745 303.125Z" fill="#FFB8B8"/>
<path d="M660.615 452.039C660.458 452.039 660.302 452.03 660.146 452.012L643.723 450.164C642.714 450.056 641.77 449.582 641.051 448.822C640.332 448.062 639.88 447.063 639.772 445.991L627.08 325.731L617.896 358.639L635.019 423.315C635.193 423.974 635.231 424.665 635.129 425.34C635.028 426.016 634.789 426.66 634.431 427.228C634.072 427.797 633.601 428.275 633.052 428.631C632.502 428.987 631.886 429.212 631.246 429.29L614.599 431.324C613.538 431.448 612.471 431.166 611.59 430.527C610.709 429.889 610.071 428.936 609.793 427.842L591.603 355.059C591.453 354.461 591.416 353.837 591.493 353.223L599.669 287.901L660.65 293.098L665.059 447.168C665.077 447.801 664.976 448.431 664.761 449.021C664.546 449.611 664.221 450.149 663.807 450.603C663.392 451.057 662.896 451.419 662.348 451.665C661.799 451.912 661.21 452.039 660.615 452.039V452.039Z" fill="#2F2E41"/>
<path d="M639.535 304.268C619.105 304.268 595.974 295.878 594.573 295.363L594.168 295.213L617.216 169.519L617.64 169.537C626.774 169.931 651.7 170.133 651.951 170.135L652.398 170.139L662.005 281.062L663.722 297.286L663.512 297.467C657.635 302.517 648.867 304.268 639.535 304.268Z" fill="#4F5D73"/>
<path d="M602.626 293.405L588.21 287.234L595.557 192.773C595.734 190.444 596.401 188.187 597.508 186.169C598.615 184.151 600.135 182.423 601.955 181.112L609.541 175.625C609.326 174.849 609.288 174.03 609.428 173.236C609.569 172.441 609.885 171.693 610.351 171.054C610.816 170.414 611.418 169.901 612.106 169.556C612.795 169.212 613.55 169.046 614.31 169.072L616.483 169.146C616.896 168.85 617.384 168.694 617.882 168.698C618.38 168.701 618.865 168.865 619.274 169.167C619.683 169.47 619.996 169.896 620.173 170.391C620.35 170.886 620.382 171.426 620.265 171.94L619.788 181.948L602.626 293.405Z" fill="#2F2E41"/>
<path d="M595.351 276.471L576.529 275.628L582.626 233.943L587.679 194.719C587.778 193.31 588.176 191.944 588.842 190.721C589.508 189.499 590.425 188.453 591.526 187.661C592.626 186.868 593.88 186.35 595.195 186.146C596.51 185.941 597.851 186.055 599.119 186.479C601.093 187.137 602.787 188.513 603.902 190.366C605.018 192.218 605.484 194.429 605.22 196.61L600.102 239.11L595.351 276.471Z" fill="#2F2E41"/>
<path d="M625.155 294.85L625.028 294.429C624.94 294.141 616.458 265.221 630.651 230.71L637.769 193.085L643.852 169.461C643.966 169.039 644.171 168.65 644.45 168.327C644.73 168.004 645.077 167.755 645.464 167.599C645.918 167.432 646.408 167.41 646.873 167.538C647.339 167.665 647.759 167.934 648.081 168.313C652.32 166.991 656.878 167.475 660.788 169.664L669.33 174.446C671.229 175.51 672.743 177.213 673.634 179.289C674.524 181.365 674.742 183.696 674.252 185.918L662.577 238.873L668.252 288.335L625.155 294.85Z" fill="#2F2E41"/>
<path d="M637.586 274.462C639.03 274.628 640.491 274.456 641.866 273.958C643.241 273.46 644.497 272.647 645.544 271.577C646.591 270.507 647.405 269.207 647.928 267.766C648.452 266.326 648.671 264.781 648.572 263.241L675.011 242.425L665.769 237.768L637.26 253.377C634.837 253.725 632.618 255.007 631.024 256.978C629.43 258.95 628.571 261.474 628.612 264.073C628.652 266.672 629.588 269.165 631.242 271.08C632.896 272.995 635.153 274.198 637.586 274.462V274.462Z" fill="#FFB8B8"/>
<path d="M654.161 265.144L645.232 247.427L667.255 232.023L656.508 191.054C656.077 189.414 655.97 187.697 656.192 186.01C656.414 184.324 656.96 182.704 657.798 181.252C658.635 179.8 659.745 178.548 661.058 177.572C662.371 176.597 663.86 175.92 665.43 175.583C668.206 174.995 671.088 175.497 673.541 176.997C675.995 178.497 677.853 180.892 678.77 183.737L693.271 229.038C693.57 229.972 693.587 230.981 693.319 231.925C693.051 232.869 692.512 233.701 691.777 234.303L654.161 265.144Z" fill="#2F2E41"/>
<path d="M635.027 140.619C632.118 141.022 629.923 137.858 628.906 134.933C627.888 132.009 627.112 128.604 624.583 127.025C621.127 124.866 616.705 127.462 612.754 126.75C608.291 125.946 605.389 120.919 605.162 116.114C604.934 111.309 606.733 106.688 608.499 102.258L609.115 107.763C609.032 105.897 609.402 104.04 610.188 102.369C610.974 100.699 612.15 99.27 613.604 98.2203L612.81 106.299C612.979 105.184 613.353 104.116 613.911 103.156C614.47 102.195 615.201 101.362 616.063 100.703C616.926 100.043 617.902 99.5716 618.936 99.3145C619.971 99.0573 621.043 99.0198 622.091 99.204L621.965 104.017C627.12 103.366 632.32 102.714 637.489 103.21C642.659 103.706 647.865 105.445 651.784 109.063C657.645 114.476 659.785 123.389 659.067 131.607C658.348 139.824 655.157 147.543 651.83 155.001C650.993 156.877 649.836 158.994 647.895 159.233C646.152 159.448 644.556 157.899 644.014 156.124C643.596 154.303 643.612 152.401 644.061 150.588C644.551 147.819 645.17 144.988 644.708 142.212C644.247 139.437 642.369 136.694 639.737 136.354C637.104 136.014 634.411 139.212 635.676 141.688L635.027 140.619Z" fill="#2F2E41"/>
<path d="M317.496 423.844L308.049 419.616L301.568 369.281H215.265L208.24 419.411L199.788 423.902C199.384 424.117 199.06 424.471 198.868 424.906C198.676 425.341 198.629 425.833 198.732 426.3C198.836 426.768 199.086 427.185 199.44 427.483C199.795 427.781 200.234 427.943 200.686 427.943H316.718C317.181 427.943 317.63 427.773 317.989 427.461C318.347 427.149 318.593 426.715 318.685 426.232C318.777 425.75 318.708 425.248 318.492 424.813C318.275 424.377 317.923 424.035 317.496 423.844Z" fill="#E6E6E6"/>
<path d="M470.863 375.978H46.9175C44.6932 375.973 42.5617 375.03 40.9906 373.356C39.4195 371.683 38.5372 369.415 38.5372 367.051V303.513H479.243V367.051C479.243 369.415 478.361 371.683 476.79 373.356C475.219 375.03 473.087 375.973 470.863 375.978Z" fill="#CCCCCC"/>
<path d="M479.687 333.543H38.1502V61.6763C38.1533 58.8232 39.2211 56.0879 41.1193 54.0705C43.0175 52.0531 45.5912 50.9183 48.2756 50.9151H469.561C472.246 50.9183 474.819 52.0531 476.717 54.0705C478.616 56.0879 479.683 58.8232 479.687 61.6763V333.543Z" fill="#3F3D56"/>
<path d="M453.315 313.811H64.5214C62.4519 313.808 60.4678 312.933 59.0044 311.378C57.541 309.823 56.7178 307.714 56.7155 305.515V78.9433C56.7178 76.7437 57.541 74.6349 59.0043 73.0795C60.4677 71.5241 62.4518 70.6492 64.5214 70.6467H453.315C455.385 70.6492 457.369 71.5241 458.832 73.0795C460.296 74.6349 461.119 76.7437 461.121 78.9433V305.515C461.119 307.714 460.296 309.823 458.832 311.378C457.369 312.933 455.385 313.808 453.315 313.811Z" fill="white"/>
<path d="M449.656 428.468H73.178C72.9159 428.468 72.6645 428.358 72.4792 428.161C72.2939 427.964 72.1898 427.697 72.1898 427.418C72.1898 427.14 72.2939 426.872 72.4792 426.676C72.6645 426.479 72.9159 426.368 73.178 426.368H449.656C449.918 426.368 450.169 426.479 450.354 426.676C450.54 426.872 450.644 427.14 450.644 427.418C450.644 427.697 450.54 427.964 450.354 428.161C450.169 428.358 449.918 428.468 449.656 428.468Z" fill="#CCCCCC"/>
<path d="M416.79 285.659H101.047C100.785 285.659 100.534 285.549 100.348 285.352C100.163 285.155 100.059 284.888 100.059 284.609V123.765C100.059 123.486 100.163 123.219 100.348 123.022C100.534 122.825 100.785 122.715 101.047 122.715C101.309 122.715 101.56 122.825 101.746 123.022C101.931 123.219 102.035 123.486 102.035 123.765V283.559H416.79C417.052 283.559 417.303 283.67 417.488 283.867C417.674 284.064 417.778 284.331 417.778 284.609C417.778 284.888 417.674 285.155 417.488 285.352C417.303 285.549 417.052 285.659 416.79 285.659Z" fill="#3F3D56"/>
<path d="M168.507 274.107H139.789C139.012 274.106 138.266 273.777 137.716 273.193C137.166 272.609 136.857 271.816 136.856 270.99V228.914C136.857 228.088 137.166 227.295 137.716 226.711C138.266 226.127 139.012 225.798 139.789 225.797H168.507C169.285 225.798 170.031 226.127 170.581 226.711C171.13 227.295 171.44 228.088 171.441 228.914V270.99C171.44 271.816 171.13 272.609 170.581 273.193C170.031 273.777 169.285 274.106 168.507 274.107Z" fill="#4F5D73"/>
<path d="M220.878 274.107H192.16C191.383 274.106 190.637 273.777 190.087 273.193C189.537 272.609 189.228 271.816 189.227 270.99V189.006C189.228 188.179 189.537 187.387 190.087 186.803C190.637 186.218 191.383 185.89 192.16 185.889H220.878C221.656 185.89 222.402 186.218 222.951 186.803C223.501 187.387 223.811 188.179 223.812 189.006V270.99C223.811 271.816 223.501 272.609 222.951 273.193C222.402 273.777 221.656 274.106 220.878 274.107Z" fill="#4F5D73"/>
<path d="M273.249 274.107H244.531C243.754 274.106 243.008 273.777 242.458 273.193C241.908 272.609 241.599 271.816 241.598 270.99V228.914C241.599 228.088 241.908 227.295 242.458 226.711C243.008 226.127 243.754 225.798 244.531 225.797H273.249C274.027 225.798 274.772 226.127 275.322 226.711C275.872 227.295 276.182 228.088 276.183 228.914V270.99C276.182 271.816 275.872 272.609 275.322 273.193C274.772 273.777 274.027 274.106 273.249 274.107Z" fill="#4F5D73"/>
<path d="M325.62 274.107H296.902C296.142 274.124 295.407 273.821 294.857 273.263C294.307 272.705 293.988 271.939 293.969 271.131V173.112C293.988 172.304 294.307 171.537 294.857 170.979C295.407 170.421 296.142 170.118 296.902 170.135H325.62C326.38 170.118 327.116 170.421 327.665 170.979C328.215 171.537 328.535 172.304 328.553 173.112V271.131C328.535 271.939 328.215 272.705 327.665 273.263C327.116 273.821 326.38 274.124 325.62 274.107Z" fill="#4F5D73"/>
<path d="M377.991 274.107H349.273C348.495 274.106 347.75 273.777 347.2 273.193C346.65 272.609 346.341 271.816 346.34 270.99V144.897C346.341 144.07 346.65 143.278 347.2 142.694C347.75 142.109 348.495 141.78 349.273 141.779H377.991C378.769 141.78 379.514 142.109 380.064 142.694C380.614 143.278 380.923 144.07 380.924 144.897V270.99C380.923 271.816 380.614 272.609 380.064 273.193C379.514 273.777 378.769 274.106 377.991 274.107Z" fill="#4F5D73"/>
<path d="M154.148 213.194C157.423 213.194 160.077 210.373 160.077 206.893C160.077 203.413 157.423 200.592 154.148 200.592C150.874 200.592 148.22 203.413 148.22 206.893C148.22 210.373 150.874 213.194 154.148 213.194Z" fill="#3F3D56"/>
<path d="M206.519 172.236C209.794 172.236 212.448 169.415 212.448 165.935C212.448 162.454 209.794 159.633 206.519 159.633C203.245 159.633 200.591 162.454 200.591 165.935C200.591 169.415 203.245 172.236 206.519 172.236Z" fill="#3F3D56"/>
<path d="M258.89 213.194C262.165 213.194 264.819 210.373 264.819 206.893C264.819 203.413 262.165 200.592 258.89 200.592C255.616 200.592 252.962 203.413 252.962 206.893C252.962 210.373 255.616 213.194 258.89 213.194Z" fill="#3F3D56"/>
<path d="M311.261 152.282C314.536 152.282 317.19 149.46 317.19 145.98C317.19 142.5 314.536 139.679 311.261 139.679C307.987 139.679 305.332 142.5 305.332 145.98C305.332 149.46 307.987 152.282 311.261 152.282Z" fill="#3F3D56"/>
<path d="M363.632 129.177C366.907 129.177 369.561 126.356 369.561 122.876C369.561 119.395 366.907 116.574 363.632 116.574C360.358 116.574 357.703 119.395 357.703 122.876C357.703 126.356 360.358 129.177 363.632 129.177Z" fill="#3F3D56"/>
<path d="M259.015 208.305L206.519 166.514L154.741 207.733L153.556 206.053L206.519 163.89L258.766 205.482L310.683 145.096L310.892 145.006L363.263 122.579L364.002 124.528L311.839 146.865L259.015 208.305Z" fill="#3F3D56"/>
</svg>
